<svg id="visual" viewBox="0 0 900 600" width="900" height="600" xmlns="http://www.w3.org/2000/svg" xmlns:xlink="http://www.w3.org/1999/xlink" version="1.1"><rect x="0" y="0" width="900" height="600" fill="#001220"></rect><defs><linearGradient id="grad1_0" x1="33.3%" y1="0%" x2="100%" y2="100%"><stop offset="20%" stop-color="#fbae3c" stop-opacity="1"></stop><stop offset="80%" stop-color="#fbae3c" stop-opacity="1"></stop></linearGradient></defs><defs><linearGradient id="grad1_1" x1="33.3%" y1="0%" x2="100%" y2="100%"><stop offset="20%" stop-color="#fbae3c" stop-opacity="1"></stop><stop offset="80%" stop-color="#f48350" stop-opacity="1"></stop></linearGradient></defs><defs><linearGradient id="grad1_2" x1="33.3%" y1="0%" x2="100%" y2="100%"><stop offset="20%" stop-color="#d96162" stop-opacity="1"></stop><stop offset="80%" stop-color="#f48350" stop-opacity="1"></stop></linearGradient></defs><defs><linearGradient id="grad1_3" x1="33.3%" y1="0%" x2="100%" y2="100%"><stop offset="20%" stop-color="#d96162" stop-opacity="1"></stop><stop offset="80%" stop-color="#af4b6d" stop-opacity="1"></stop></linearGradient></defs><defs><linearGradient id="grad1_4" x1="33.3%" y1="0%" x2="100%" y2="100%"><stop offset="20%" stop-color="#7c3e6b" stop-opacity="1"></stop><stop offset="80%" stop-color="#af4b6d" stop-opacity="1"></stop></linearGradient></defs><defs><linearGradient id="grad1_5" x1="33.3%" y1="0%" x2="100%" y2="100%"><stop offset="20%" stop-color="#7c3e6b" stop-opacity="1"></stop><stop offset="80%" stop-color="#49335c" stop-opacity="1"></stop></linearGradient></defs><defs><linearGradient id="grad1_6" x1="33.3%" y1="0%" x2="100%" y2="100%"><stop offset="20%" stop-color="#1d2540" stop-opacity="1"></stop><stop offset="80%" stop-color="#49335c" stop-opacity="1"></stop></linearGradient></defs><defs><linearGradient id="grad1_7" x1="33.3%" y1="0%" x2="100%" y2="100%"><stop offset="20%" stop-color="#1d2540" stop-opacity="1"></stop><stop offset="80%" stop-color="#001220" stop-opacity="1"></stop></linearGradient></defs><defs><linearGradient id="grad2_0" x1="0%" y1="0%" x2="66.7%" y2="100%"><stop offset="20%" stop-color="#fbae3c" stop-opacity="1"></stop><stop offset="80%" stop-color="#fbae3c" stop-opacity="1"></stop></linearGradient></defs><defs><linearGradient id="grad2_1" x1="0%" y1="0%" x2="66.7%" y2="100%"><stop offset="20%" stop-color="#f48350" stop-opacity="1"></stop><stop offset="80%" stop-color="#fbae3c" stop-opacity="1"></stop></linearGradient></defs><defs><linearGradient id="grad2_2" x1="0%" y1="0%" x2="66.7%" y2="100%"><stop offset="20%" stop-color="#f48350" stop-opacity="1"></stop><stop offset="80%" stop-color="#d96162" stop-opacity="1"></stop></linearGradient></defs><defs><linearGradient id="grad2_3" x1="0%" y1="0%" x2="66.7%" y2="100%"><stop offset="20%" stop-color="#af4b6d" stop-opacity="1"></stop><stop offset="80%" stop-color="#d96162" stop-opacity="1"></stop></linearGradient></defs><defs><linearGradient id="grad2_4" x1="0%" y1="0%" x2="66.7%" y2="100%"><stop offset="20%" stop-color="#af4b6d" stop-opacity="1"></stop><stop offset="80%" stop-color="#7c3e6b" stop-opacity="1"></stop></linearGradient></defs><defs><linearGradient id="grad2_5" x1="0%" y1="0%" x2="66.7%" y2="100%"><stop offset="20%" stop-color="#49335c" stop-opacity="1"></stop><stop offset="80%" stop-color="#7c3e6b" stop-opacity="1"></stop></linearGradient></defs><defs><linearGradient id="grad2_6" x1="0%" y1="0%" x2="66.7%" y2="100%"><stop offset="20%" stop-color="#49335c" stop-opacity="1"></stop><stop offset="80%" stop-color="#1d2540" stop-opacity="1"></stop></linearGradient></defs><defs><linearGradient id="grad2_7" x1="0%" y1="0%" x2="66.7%" y2="100%"><stop offset="20%" stop-color="#001220" stop-opacity="1"></stop><stop offset="80%" stop-color="#1d2540" stop-opacity="1"></stop></linearGradient></defs><g transform="translate(900, 0)"><path d="M0 486.7C-70.6 486.7 -141.2 486.6 -186.3 449.7C-231.3 412.8 -250.8 339 -291.3 291.3C-331.9 243.7 -393.5 222.1 -429.6 177.9C-465.7 133.7 -476.2 66.9 -486.7 0L0 0Z" fill="#0c1c30"></path><path d="M0 425.9C-61.8 425.9 -123.6 425.8 -163 393.5C-202.4 361.2 -219.4 296.6 -254.9 254.9C-290.4 213.2 -344.3 194.4 -375.9 155.7C-407.5 117 -416.7 58.5 -425.9 0L0 0Z" fill="#312c4f"></path><path d="M0 365.1C-53 365 -105.9 365 -139.7 337.3C-173.5 309.6 -188.1 254.2 -218.5 218.5C-248.9 182.8 -295.1 166.6 -322.2 133.5C-349.3 100.3 -357.2 50.2 -365.1 0L0 0Z" fill="#623965"></path><path d="M0 304.2C-44.1 304.2 -88.3 304.1 -116.4 281.1C-144.6 258 -156.7 211.9 -182.1 182.1C-207.4 152.3 -245.9 138.8 -268.5 111.2C-291.1 83.6 -297.6 41.8 -304.2 0L0 0Z" fill="#96446e"></path><path d="M0 243.4C-35.3 243.3 -70.6 243.3 -93.1 224.8C-115.7 206.4 -125.4 169.5 -145.7 145.7C-165.9 121.8 -196.8 111.1 -214.8 89C-232.8 66.9 -238.1 33.4 -243.4 0L0 0Z" fill="#c55469"></path><path d="M0 182.5C-26.5 182.5 -53 182.5 -69.9 168.6C-86.7 154.8 -94 127.1 -109.2 109.2C-124.5 91.4 -147.6 83.3 -161.1 66.7C-174.6 50.2 -178.6 25.1 -182.5 0L0 0Z" fill="#e9705a"></path><path d="M0 121.7C-17.7 121.7 -35.3 121.7 -46.6 112.4C-57.8 103.2 -62.7 84.7 -72.8 72.8C-83 60.9 -98.4 55.5 -107.4 44.5C-116.4 33.4 -119.1 16.7 -121.7 0L0 0Z" fill="#fa9845"></path><path d="M0 60.8C-8.8 60.8 -17.7 60.8 -23.3 56.2C-28.9 51.6 -31.3 42.4 -36.4 36.4C-41.5 30.5 -49.2 27.8 -53.7 22.2C-58.2 16.7 -59.5 8.4 -60.8 0L0 0Z" fill="#fbae3c"></path></g><g transform="translate(0, 600)"><path d="M0 -486.7C70.2 -486.4 140.5 -486.1 186.3 -449.7C232 -413.3 253.3 -340.9 292.7 -292.7C332.1 -244.6 389.6 -220.8 425 -176C460.3 -131.3 473.5 -65.6 486.7 0L0 0Z" fill="#0c1c30"></path><path d="M0 -425.9C61.5 -425.6 122.9 -425.3 163 -393.5C203 -361.6 221.7 -298.3 256.1 -256.1C290.6 -214 340.9 -193.2 371.9 -154C402.8 -114.9 414.3 -57.4 425.9 0L0 0Z" fill="#312c4f"></path><path d="M0 -365.1C52.7 -364.8 105.4 -364.6 139.7 -337.3C174 -310 190 -255.7 219.6 -219.6C249.1 -183.5 292.2 -165.6 318.7 -132C345.3 -98.5 355.2 -49.2 365.1 0L0 0Z" fill="#623965"></path><path d="M0 -304.2C43.9 -304 87.8 -303.8 116.4 -281.1C145 -258.3 158.3 -213 183 -183C207.6 -152.9 243.5 -138 265.6 -110C287.7 -82.1 296 -41 304.2 0L0 0Z" fill="#96446e"></path><path d="M0 -243.4C35.1 -243.2 70.2 -243 93.1 -224.8C116 -206.7 126.7 -170.4 146.4 -146.4C166.1 -122.3 194.8 -110.4 212.5 -88C230.2 -65.6 236.8 -32.8 243.4 0L0 0Z" fill="#c55469"></path><path d="M0 -182.5C26.3 -182.4 52.7 -182.3 69.9 -168.6C87 -155 95 -127.8 109.8 -109.8C124.6 -91.7 146.1 -82.8 159.4 -66C172.6 -49.2 177.6 -24.6 182.5 0L0 0Z" fill="#e9705a"></path><path d="M0 -121.7C17.6 -121.6 35.1 -121.5 46.6 -112.4C58 -103.3 63.3 -85.2 73.2 -73.2C83 -61.2 97.4 -55.2 106.2 -44C115.1 -32.8 118.4 -16.4 121.7 0L0 0Z" fill="#fa9845"></path><path d="M0 -60.8C8.8 -60.8 17.6 -60.8 23.3 -56.2C29 -51.7 31.7 -42.6 36.6 -36.6C41.5 -30.6 48.7 -27.6 53.1 -22C57.5 -16.4 59.2 -8.2 60.8 0L0 0Z" fill="#fbae3c"></path></g></svg>